<?xml version="1.0" encoding="utf-8"?>
<!-- Generator: Adobe Illustrator 27.8.1, SVG Export Plug-In . SVG Version: 6.00 Build 0)  -->
<svg version="1.1" id="Layer_1" xmlns="http://www.w3.org/2000/svg" xmlns:xlink="http://www.w3.org/1999/xlink" x="0px" y="0px"
	 viewBox="0 0 910 198.1" style="enable-background:new 0 0 910 198.1;" xml:space="preserve">
<g>
	<g>
		<g>
			<path d="M163.4,190c-3.9-3.9-5.8-8.6-5.8-14v-26.7c0-8.9-3-17.8-9-26.6c-6-8.8-13.5-14-22.5-15.6C139.7,100.6,149,91.5,154,80
				c5-11.5,5.9-23.4,2.9-35.7c-3.1-12.2-9.8-22.6-20.2-31.1C126.3,4.8,112.5,0.4,95.5,0H72.6c0.1,0,0.2,0,0.2,0H9.1c0,0,0.1,0,0.2,0
				h0.1c0.2,0,0.4,0,0.5,0c3.6,0.2,6.8,1.8,9.5,4.8c2.9,3.2,4.4,7.4,4.4,12.6v39.5c0,0.3,0,0.7,0,1c0.5,13.6,11.7,24.4,25.3,24.4
				h9.3V17.4c0-0.3,0-0.6,0-1V7.8h2.2h25.6c8.5,0,15.5,2.4,21.1,7.2c5.6,4.8,9.7,10.9,12.3,18.5c2.6,7.5,3.9,15.5,3.8,23.9
				c-0.1,8.4-1.6,16.4-4.5,23.9c-2.9,7.5-7.1,13.7-12.6,18.4c-4.7,4-10.2,6.4-16.8,7c-2.1,0.2-3.7,2-3.6,4.2c0,2.2,1.8,4,4,4.1
				c3.9,0.1,9.1,0.3,11.5,0.6c3.5,0.5,6.8,1.6,10.1,3.4c3.2,1.8,6,4.5,8.2,8.2c2.2,3.7,3.4,8.8,3.4,15.3V167c0,8.6,1.5,14.9,4.7,19
				c3.1,4.1,7.3,6.8,12.5,8c5.2,1.2,11.1,1.8,17.5,1.8h19.8C172,195.9,167.3,193.9,163.4,190z"/>
			<path d="M62.9,191.1c-2.9-3.2-4.4-7.4-4.4-12.6v-36.8l-9.3,0c-14,0-25.4,11.4-25.4,25.4v11.4c0,5.2-1.5,9.4-4.4,12.6
				c-2.9,3.2-6.3,4.8-10.3,4.8H73C69.2,195.9,65.8,194.3,62.9,191.1z"/>
			<ellipse transform="matrix(0.9239 -0.3827 0.3827 0.9239 -40.9489 24.5121)" cx="41.1" cy="115.2" rx="17.3" ry="17.3"/>
		</g>
		<polygon points="186.6,198.1 0,198.1 0,17.7 54.3,17.7 54.3,20.3 2.6,20.3 2.6,195.6 184,195.6 184,20.3 118.9,20.3 118.9,17.7 
			186.6,17.7 		"/>
	</g>
	<g>
		<g>
			<path d="M302.9,95.1c3.8,5.5,5.6,11.1,5.6,16.7v16.8c0,3.4,1.2,6.4,3.7,8.8c2.4,2.4,5.4,3.7,8.8,3.7h-12.5c-4,0-7.7-0.4-11-1.2
				c-3.3-0.8-5.9-2.5-7.9-5c-2-2.6-2.9-6.6-2.9-12v-15.5c0-4.1-0.7-7.3-2.1-9.6c-1.4-2.3-3.1-4.1-5.2-5.2c-2-1.1-4.2-1.8-6.3-2.1
				c-2.2-0.3-4-0.4-5.6-0.4h-21.5v40.1c0,3.3,0.9,5.9,2.8,7.9c1.8,2,4,3,6.5,3h-40.2c2.4,0,4.5-1,6.4-3c1.8-2,2.8-4.6,2.8-7.9V28.7
				c0-3.3-0.9-5.9-2.8-7.9c-1.8-2-4-3-6.4-3h54.3c10.7,0.2,19.4,3,25.9,8.4c6.5,5.3,10.8,11.9,12.7,19.6c1.9,7.7,1.3,15.2-1.8,22.4
				c-3.1,7.3-9,13-17.5,17.1C294.4,86.3,299.2,89.6,302.9,95.1z M263.3,85.1c5.1-0.1,9.4-1.6,12.9-4.6c3.5-3,6.1-6.8,7.9-11.6
				c1.8-4.7,2.8-9.8,2.8-15c0.1-5.3-0.7-10.3-2.4-15c-1.7-4.7-4.3-8.6-7.8-11.6c-3.5-3-7.9-4.5-13.3-4.5h-17.5v62.4H263.3z"/>
			<path d="M335.3,130.2V31.4c0-4.1-0.9-7.4-2.8-9.9c-1.8-2.5-4-3.8-6.4-3.8h88.7l3.5,21.5c-1.1-2.9-2.9-5.5-5.3-8
				c-2.5-2.5-5.6-4.5-9.3-6c-3.7-1.5-8-2.3-12.8-2.3h-33.8v53.9h17.8c3.2,0,6-0.7,8.5-2.1c2.5-1.4,4.5-3.1,6.2-5.1
				c1.6-2,2.7-3.9,3.2-5.9V95c-0.5-2-1.6-3.9-3.2-5.9c-1.6-2-3.7-3.7-6.2-5.1c-2.5-1.4-5.3-2.1-8.5-2.1h-17.8v53.9h33.8
				c4.8,0,9.1-0.8,12.8-2.3c3.7-1.5,6.8-3.5,9.3-6c2.5-2.5,4.3-5.1,5.3-8l-3.5,21.5h-88.7c2.4,0,4.5-1,6.4-3
				C334.3,136,335.3,133.4,335.3,130.2z"/>
			<path d="M442.7,138c1.8,2,4,3,6.5,3h-14.3h-9.2c2.5,0,4.6-1,6.5-3c1.8-2,2.8-4.6,2.8-7.8c0-36.4,0-70.3,0-101.6
				c0-3.1-1.2-5.7-3.5-7.8c-2.3-2.1-5-3.1-7.9-3.1h32.3l33.9,93.9l34.3-93.9H555c-2.4,0-4.5,1-6.4,3c-1.8,2-2.8,4.6-2.8,7.8
				l-0.3,101.6c0,3.2,0.9,5.8,2.8,7.8c1.8,2,4,3,6.4,3h-40.2c2.5,0,4.6-1,6.5-3c1.8-2,2.8-4.6,2.8-7.8l0.3-96.7L485.5,141h-7.2
				L440,36.3v93.8C440,133.4,440.9,136,442.7,138z"/>
			<path d="M644.2,131l-7.2-18.6h-49.5l-7.4,18.6c-1,3-0.8,5.5,0.6,7.3c1.4,1.8,3.4,2.8,6.1,2.8h-27c2.6,0,5.3-0.9,8-2.8
				c2.7-1.8,4.6-4.3,5.9-7.3l44-113.2h6.4l44,113.2c1.3,3,3.2,5.5,5.9,7.3s5.3,2.8,8,2.8h-43.9c2.6,0,4.6-0.9,5.9-2.8
				S645.3,134,644.2,131z M589.5,107.2l45.5-0.1l-22.8-58.5L589.5,107.2z"/>
			<path d="M774.3,95.1c3.8,5.5,5.6,11.1,5.6,16.7v16.8c0,3.4,1.2,6.4,3.7,8.8c2.4,2.4,5.4,3.7,8.8,3.7H780c-4,0-7.7-0.4-11-1.2
				c-3.3-0.8-5.9-2.5-7.9-5c-2-2.6-2.9-6.6-2.9-12v-15.5c0-4.1-0.7-7.3-2.1-9.6s-3.1-4.1-5.2-5.2c-2-1.1-4.2-1.8-6.3-2.1
				c-2.2-0.3-4-0.4-5.6-0.4h-21.5v40.1c0,3.3,0.9,5.9,2.8,7.9c1.8,2,4,3,6.5,3h-40.2c2.4,0,4.5-1,6.4-3c1.8-2,2.8-4.6,2.8-7.9V28.7
				c0-3.3-0.9-5.9-2.8-7.9c-1.8-2-4-3-6.4-3h54.3c10.7,0.2,19.4,3,25.9,8.4c6.5,5.3,10.8,11.9,12.7,19.6c1.9,7.7,1.3,15.2-1.8,22.4
				c-3.1,7.3-9,13-17.5,17.1C765.9,86.3,770.6,89.6,774.3,95.1z M734.7,85.1c5.1-0.1,9.4-1.6,12.9-4.6c3.5-3,6.1-6.8,7.9-11.6
				c1.8-4.7,2.8-9.8,2.8-15c0.1-5.3-0.7-10.3-2.4-15c-1.7-4.7-4.3-8.6-7.8-11.6c-3.5-3-7.9-4.5-13.3-4.5h-17.5v62.4H734.7z"/>
			<path d="M803.5,20.8c-1.8-2-4-3-6.5-3h40.2c-2.4,0-4.5,1-6.4,3c-1.8,2-2.8,4.6-2.8,7.8v58.5L871,32.6c2.3-3.7,2.9-7.1,1.7-10.2
				c-1.2-3.1-3-4.7-5.5-4.7h40.1c-1.5,0-4.2,0.6-8.1,1.7c-3.9,1.1-8,2.8-12.2,5c-4.2,2.2-7.7,5.1-10.5,8.4L845.9,72l44.6,55
				c2.4,3.4,5.4,6.6,9.1,9.6c3.7,3,6.8,4.5,9.3,4.5h-28.7c-5.7,0-11-3.6-15.9-10.9L831.6,90l-3.5,4.5v35.7c0,3.2,0.9,5.8,2.8,7.8
				c1.8,2,4,3,6.4,3H797c2.5,0,4.6-1,6.5-3c1.8-2,2.8-4.6,2.8-7.8c0-36.4,0-70.3,0-101.6C806.3,25.4,805.3,22.8,803.5,20.8z"/>
		</g>
		<g>
			<path d="M232.7,197.9l-4.6-6.6c-0.4,0-0.9,0.1-1.3,0.1h-5.3v6.5h-3.1v-21.4h8.4c5.6,0,8.9,2.8,8.9,7.5c0,3.3-1.7,5.7-4.7,6.8
				l5.1,7.2H232.7z M232.6,183.9c0-3.1-2-4.8-6-4.8h-5.2v9.6h5.2C230.5,188.8,232.6,187,232.6,183.9z"/>
			<path d="M305.1,195.2v2.7h-15.5v-21.4h15.1v2.7h-12.1v6.6h10.7v2.6h-10.7v6.9H305.1z"/>
			<path d="M372.6,192.5h-11.4l-2.4,5.4h-3.1l9.7-21.4h3l9.7,21.4h-3.2L372.6,192.5z M371.5,190.1l-4.6-10.5l-4.6,10.5H371.5z"/>
			<path d="M430.3,176.5h3.1v18.8h11.6v2.7h-14.7V176.5z"/>
			<path d="M570,195.2v2.7h-15.5v-21.4h15.1v2.7h-12.1v6.6h10.7v2.6h-10.7v6.9H570z"/>
			<path d="M622,195.4l1.1-2.4c1.6,1.4,4.3,2.5,7.1,2.5c3.7,0,5.3-1.4,5.3-3.3c0-5.2-13-1.9-13-9.9c0-3.3,2.6-6.1,8.2-6.1
				c2.5,0,5.1,0.7,6.9,1.9l-1,2.4c-1.9-1.2-4-1.7-5.9-1.7c-3.6,0-5.2,1.5-5.2,3.4c0,5.2,13,2,13,9.8c0,3.3-2.6,6.1-8.3,6.1
				C626.9,198.1,623.7,197,622,195.4z"/>
			<path d="M695.8,179.1h-7.3v-2.7h17.7v2.7h-7.3v18.8h-3V179.1z"/>
			<path d="M771,192.5h-11.4l-2.4,5.4h-3.1l9.7-21.4h3l9.7,21.4h-3.2L771,192.5z M769.9,190.1l-4.6-10.5l-4.6,10.5H769.9z"/>
			<path d="M831.8,179.1h-7.3v-2.7h17.7v2.7h-7.3v18.8h-3V179.1z"/>
			<path d="M910,195.2v2.7h-15.5v-21.4h15.1v2.7h-12.1v6.6h10.7v2.6h-10.7v6.9H910z"/>
		</g>
	</g>
</g>
</svg>
