<?xml version="1.0" encoding="UTF-8"?>
<svg id="Capa_1" data-name="Capa 1" xmlns="http://www.w3.org/2000/svg" viewBox="0 0 512 512">
  <defs>
    <style>
      .cls-1 {
        fill: #fff;
      }
    </style>
  </defs>
  <path class="cls-1" d="m490,188.66v-90.63c0-21.5-17.49-39-39-39h-70.85c-21.59,0-39.15,17.56-39.15,39.15v8.85c0,5.52,4.48,10,10,10h78c1.65,0,3,1.35,3,3v67.01H32.04c-17.67,0-32.04,14.37-32.04,32.04,0,14.16,9.24,26.2,22,30.42v86.73c0,47.47,35.44,86.82,81.26,92.97l-6.7,6.7c-3.9,3.9-3.9,10.24,0,14.14,1.95,1.95,4.51,2.93,7.07,2.93s5.12-.98,7.07-2.93l20-20h250.6l20,20c1.95,1.95,4.51,2.93,7.07,2.93s5.12-.98,7.07-2.93c3.9-3.9,3.91-10.24,0-14.14l-6.7-6.7c45.81-6.15,81.26-45.5,81.26-92.97v-86.73c12.76-4.22,22-16.26,22-30.42s-9.24-26.2-22-30.42Zm-61-91.63h-67.97c.6-10.03,8.94-18,19.12-18h70.85c10.48,0,19,8.52,19,19v89h-18v-67c0-12.68-10.32-23-23-23ZM74,207.04h172v130.77l-1.41-.73c-12.9-6.69-28.32-6.69-41.24.01l-.07.04c-7.11,3.68-15.59,3.67-22.69-.03-6.45-3.37-13.52-5.05-20.6-5.05s-14.04,1.66-20.43,4.97c0,0-.1.05-.12.06-7.13,3.7-15.64,3.7-22.77.02-.01,0-.03-.01-.04-.02-12.91-6.69-28.32-6.69-41.22,0l-1.4.73v-130.76Zm-54,12.04c0-6.64,5.4-12.04,12.04-12.04h21.96v24.08h-21.96c-6.64,0-12.04-5.4-12.04-12.04Zm450,117.15c0,40.7-33.11,73.81-73.81,73.81H115.81c-40.7,0-73.81-33.11-73.81-73.81v-85.1h12v102.21c0,3.66,1.94,7.12,5.07,9.02s7.09,2.04,10.34.35l15.2-7.88c7.13-3.7,15.64-3.7,22.77-.02.01,0,.03.02.04.02,12.91,6.69,28.32,6.69,41.19.02,0,0,.1-.05.12-.06,7.08-3.67,15.52-3.66,22.59.03,12.88,6.73,28.26,6.75,41.18.05l.07-.04c7.14-3.7,15.67-3.7,22.81,0l15.2,7.88c1.52.79,3.19,1.18,4.86,1.18,1.91,0,3.82-.51,5.48-1.52,3.13-1.9,5.07-5.36,5.07-9.02v-102.22h204v85.1Zm9.96-105.1h-213.96v-24.08h213.96c6.64,0,12.04,5.4,12.04,12.04s-5.4,12.04-12.04,12.04Z"/>
  <path class="cls-1" d="m310.61,369.22h-.55c-5.52,0-10,4.48-10,10s4.48,10,10,10h.55c5.52,0,10-4.48,10-10s-4.48-10-10-10Z"/>
  <path class="cls-1" d="m437.09,301.59c-5.52,0-10,4.48-10,10,0,31.78-25.85,57.63-57.63,57.63h-27.95c-5.52,0-10,4.48-10,10s4.48,10,10,10h27.95c42.81,0,77.63-34.83,77.63-77.63,0-5.52-4.48-10-10-10Z"/>
  <path class="cls-1" d="m344.06,153.67c-5.22-1.8-10.91.98-12.71,6.21l-1.62,4.73c-1.8,5.22.98,10.91,6.21,12.71,1.08.37,2.17.55,3.25.55,4.15,0,8.03-2.61,9.46-6.75l1.62-4.73c1.8-5.22-.98-10.91-6.21-12.71Z"/>
  <path class="cls-1" d="m355.44,120.57c-5.22-1.8-10.91.98-12.71,6.21l-1.62,4.73c-1.8,5.22.98,10.91,6.21,12.71,1.08.37,2.17.55,3.25.55,4.15,0,8.03-2.61,9.46-6.75l1.62-4.73c1.79-5.22-.98-10.91-6.21-12.71Z"/>
  <path class="cls-1" d="m374.5,155.24c-5.52,0-10,4.48-10,10v5c0,5.52,4.48,10,10,10s10-4.48,10-10v-5c0-5.52-4.48-10-10-10Z"/>
  <path class="cls-1" d="m374.5,120.24c-5.52,0-10,4.48-10,10v5c0,5.52,4.48,10,10,10s10-4.48,10-10v-5c0-5.52-4.48-10-10-10Z"/>
  <path class="cls-1" d="m419.44,164.6l-1.62-4.73c-1.8-5.22-7.49-8-12.71-6.21-5.22,1.8-8,7.49-6.2,12.71l1.62,4.73c1.42,4.15,5.3,6.75,9.46,6.75,1.08,0,2.17-.18,3.25-.55,5.22-1.79,8-7.48,6.21-12.71Z"/>
  <path class="cls-1" d="m408.06,131.51l-1.62-4.73c-1.8-5.22-7.48-8-12.71-6.21-5.22,1.79-8,7.48-6.21,12.71l1.62,4.73c1.43,4.15,5.3,6.75,9.46,6.75,1.08,0,2.17-.18,3.25-.55,5.22-1.79,8-7.49,6.21-12.71Z"/>
</svg>