<?xml version="1.0" encoding="UTF-8"?>
<svg id="Capa_1" data-name="Capa 1" xmlns="http://www.w3.org/2000/svg" viewBox="0 0 512 512">
  <defs>
    <style>
      .cls-1 {
        fill: #fff;
      }
    </style>
  </defs>
  <path class="cls-1" d="m440,188h-8v-64c-.03-22.08-17.92-39.97-40-40H120c-22.08.03-39.97,17.92-40,40v64h-8C32.26,188.05.05,220.26,0,260v112h16v56h40v-56h400v56h40v-56h16v-112c-.05-39.74-32.26-71.95-72-72ZM96,124c0-13.25,10.75-24,24-24h272c13.26,0,24,10.75,24,24v64h-24v-32c0-13.26-10.74-24-24-24h-72c-13.26,0-24,10.74-24,24v32h-32v-32c0-13.26-10.74-24-24-24h-72c-13.26,0-24,10.74-24,24v32h-24v-64Zm280,32v32h-88v-32c0-4.42,3.58-8,8-8h72c4.42,0,8,3.58,8,8Zm-152,0v32h-88v-32c0-4.42,3.58-8,8-8h72c4.42,0,8,3.58,8,8ZM40,412h-8v-40h8v40Zm440,0h-8v-40h8v40Zm16-56H16v-40h480v40Zm0-56H16v-40c.03-30.91,25.09-55.96,56-56h368c30.91.04,55.96,25.09,56,56v40Z"/>
</svg>