<?xml version="1.0" encoding="UTF-8"?>
<svg id="Layer_1" data-name="Layer 1" xmlns="http://www.w3.org/2000/svg" viewBox="0 0 122.88 109.37">
  <defs>
    <style>
      .cls-1 {
        fill: #fff;
        fill-rule: evenodd;
      }
    </style>
  </defs>
  <path class="cls-1" d="m112.28,107.53c0,1.01-.82,1.84-1.84,1.84H11.93c-1.01,0-1.84-.82-1.84-1.84v-55.86c-2.06.79-3.97.8-5.57.27-1.25-.42-2.3-1.17-3.07-2.15-.77-.97-1.26-2.16-1.41-3.46-.22-2.03.39-4.33,2.11-6.48h0c.09-.11.19-.21.3-.3L60.05.48c.65-.6,1.65-.66,2.37-.1l57.7,38.99h0c.08.06.15.13.22.2,2.32,2.5,2.9,5.27,2.34,7.62-.28,1.15-.83,2.2-1.59,3.05-.76.86-1.73,1.52-2.84,1.92-1.76.64-3.84.61-5.96-.39-.01,15.6-.01,40.17-.01,55.76h0ZM45.33,36.35h32.21v21.69h-32.21v-21.69h0Zm10.95,5.89c.93,0,1.69.76,1.69,1.69s-.76,1.69-1.69,1.69-1.69-.76-1.69-1.69.75-1.69,1.69-1.69h0Zm7.11,7.25l3.8-5.84,3.59,9.08h-17.6v-1.13l1.41-.07,1.41-3.45,1.12,2.47h2.11l1.83-4.72,2.33,3.66h0Zm-16.12-10.91h28.35v17.23h-28.35v-17.23h0Zm13.66,36.1s.09,0,.13-.04c2.16-1.69,5.33-.98,6.78,2.56h-.03c-2.86,2.43-4.91,5.07-5.65,8.02h-4.14l2.91-10.54h0Zm14.42,6.75c.35,3-2.73,5.59-5.44,4.77-.38.66-.67,1.49-.9,2.49-.51,2.33-.36,1.62-.14,3.88.3,3.01-.02,5.06-1.96,5.94v1.16H27.73v-1.16c-1.51-.54-2.16-2.02-1.93-4.45.5-4.58.19-6.01-.96-7.74-2.02.07-3.48-.41-4.39-1.43-1.86-2.07-1.29-5.1,1.03-6.55.48-.3,1.04-.53,1.69-.67,4.98-1.05,7.73,4.05,9.05,8.07l13.07.35c.89.12,1.46.52,1.84,1.06.35-.53.86-.93,1.64-1.11,4.07-.18,6.98.36,9.95.36h3.46c.71,0,1.08-.31,1.2-.88.88-2.68,4-8.06,7.27-7.96,2.01.07,4.2,1.45,4.7,3.87h0Zm-48.21-4.55h0c1.32-2.94,3.38-3.67,6.19-2.69l3.01,10.35h-3.25c-1.51-3.08-2.51-6.21-5.95-7.66h0Zm7.46-2.61s.07-.05.09-.1c1.11-2.56,4.17-3.28,6.67-2.18,0-.01,0-.01,0-.01l.68,13.18h-4.33l-3.12-10.89h0Zm8.1-2.56c.81-3.37,8.49-2.68,9.2-.36.1-.01-.8,12.44-.86,13.82h-7.75l-.56-13.46h-.03Zm10.2.57s.05-.01.08-.02c2.78-1.48,6.65-.4,7.02,1.53l-.19.07-3.05,11.3h-4.51l.65-12.88h0Zm39.93,5.62v18.35h3.7c.57,0,1.03.67,1.03,1.24s-.46,1.24-1.03,1.24h-10.25c-.57,0-1.03-.67-1.03-1.24s.46-1.24,1.03-1.24h3.7v-18.35h2.85Zm-6.74-13.9h10.6l3.11,12.27h-16.8l3.09-12.27h0Zm21.57,40.74v-55.12c0-.12.01-.24.03-.35l-46.07-30.69L14.66,49.28c.04.15.06.31.06.47v54.99c30.98,0,61.96,0,92.94,0h0Z"/>
</svg>