<?xml version="1.0" encoding="UTF-8"?>
<svg id="Layer_1" data-name="Layer 1" xmlns="http://www.w3.org/2000/svg" viewBox="0 0 150 150">
  <defs>
    <style>
      .cls-1 {
        fill: #fff;
        fill-rule: evenodd;
      }
    </style>
  </defs>
  <g id="Layer">
    <path id="Layer-2" data-name="Layer" class="cls-1" d="m149.91,0v35.9H50.67v-2.11c0-9.31-7.58-16.89-16.89-16.89s-16.89,7.58-16.89,16.89,7.58,16.89,16.89,16.89h2.11v99.24H0V0h149.91Zm-4.22,31.67V4.22H4.22v141.46h27.45v-17.11h-7.21v-4.22h7.21v-7.04h-7.21v-4.22h7.21v-6.46H15.13v-4.22h16.54v-6.69h-7.21v-4.22h7.21v-7.04h-7.21v-4.22h7.21v-6.33H15.13v-4.22h16.54v-14.88c-10.65-1.06-19-10.08-19-21.01,0-11.64,9.47-21.11,21.11-21.11,10.93,0,19.95,8.35,21.01,19h14.75v-8.56h4.22v8.56h7.04v-8.56h4.22v8.56h6.47V13.79h4.22v17.88h6.69v-8.56h4.22v8.56h7.04v-8.56h4.22v8.56h6.33V13.79h4.22v17.88h17.24Z"/>
  </g>
</svg>