<?xml version="1.0" encoding="utf-8"?>
<!-- Generator: Adobe Illustrator 27.7.0, SVG Export Plug-In . SVG Version: 6.00 Build 0)  -->
<svg version="1.1" id="Layer_1" xmlns="http://www.w3.org/2000/svg" xmlns:xlink="http://www.w3.org/1999/xlink" x="0px" y="0px"
	 viewBox="0 0 150 150" style="enable-background:new 0 0 150 150;" xml:space="preserve">
<style type="text/css">
	.st0{fill:none;stroke:#FFFFFF;stroke-width:5;stroke-miterlimit:10;}
	.st1{fill:none;stroke:#FFFFFF;stroke-width:2;stroke-miterlimit:10;}
</style>
<g>
	<g>
		<path class="st0" d="M10.6,40.4v94.4h114c0,0,16.7-0.5,17.7-20.6s0-87.1,0-87.1s-23.4-26.8-47.6,0v14.1L10.6,40.4z"/>
		<path class="st0" d="M94.7,40v67.8c1.3-11,9.5-20,20.3-22.3c10.9-2.3,22.1,2.6,27.8,12.2"/>
	</g>
	<g>
		<polygon class="st0" points="24.4,83.6 53.6,54.4 82.8,83.6 74.7,83.6 74.7,116.1 56.7,116.1 56.7,93.1 49.2,93.1 49.2,116.1 
			30.3,116.1 30.3,85.2 23,85.2 		"/>
		<rect x="49.5" y="78.8" class="st1" width="6.7" height="6.3"/>
	</g>
</g>
</svg>
